<?xml version="1.0" standalone="no"?>
<!DOCTYPE svg PUBLIC "-//W3C//DTD SVG 20010904//EN"
 "http://www.w3.org/TR/2001/REC-SVG-20010904/DTD/svg10.dtd">
<svg version="1.0" xmlns="http://www.w3.org/2000/svg"
 width="300.000000pt" height="300.000000pt" viewBox="0 0 300.000000 300.000000"
 preserveAspectRatio="xMidYMid meet">
<metadata>
Created by potrace 1.13, written by Peter Selinger 2001-2015
</metadata>
<g transform="translate(0.000000,300.000000) scale(0.100000,-0.100000)"
fill="#000000" stroke="none">
<path d="M1285 2859 c-22 -4 -57 -10 -77 -14 -56 -9 -207 -59 -274 -91 -415
-195 -697 -554 -785 -997 -27 -138 -27 -387 1 -525 83 -421 357 -781 745 -975
85 -42 255 -100 350 -118 84 -17 450 -18 510 -2 l40 11 -41 1 c-50 1 -64 19
-87 107 -14 58 -14 65 4 119 34 103 23 170 -40 254 -18 24 -26 48 -27 80 -1
25 -2 49 -3 54 0 4 -27 7 -58 7 -121 0 -201 44 -251 138 -40 74 -39 111 0 130
37 17 79 -4 113 -58 29 -46 77 -74 111 -66 14 4 41 22 62 40 78 71 272 336
272 371 0 12 9 51 20 85 11 34 20 77 20 94 0 17 9 46 21 65 18 29 19 39 9 80
-37 158 -38 172 -24 207 8 18 14 54 14 78 0 66 43 149 88 171 54 25 165 32
196 11 32 -21 108 -21 148 0 24 13 36 14 56 5 23 -11 24 -14 18 -74 -6 -55
-11 -66 -44 -96 -20 -18 -61 -47 -89 -63 -29 -16 -55 -34 -58 -38 -7 -12 63
-160 76 -160 13 0 71 -62 111 -119 l31 -44 53 6 c30 3 79 17 110 31 31 14 86
31 122 36 69 11 102 24 102 40 0 6 9 19 21 31 20 20 20 25 9 87 -17 90 -74
261 -117 347 -194 387 -554 662 -975 745 -77 16 -137 20 -271 19 -95 -1 -190
-5 -212 -10z"/>
<path d="M2859 1348 c-18 -33 -30 -39 -72 -32 -27 4 -45 1 -64 -11 -17 -12
-35 -15 -57 -11 -17 4 -86 4 -153 0 l-122 -7 -31 -63 c-25 -51 -53 -83 -143
-166 -129 -118 -237 -227 -237 -239 0 -4 -5 -20 -12 -36 -6 -15 -13 -71 -14
-123 -2 -111 -34 -229 -83 -311 -23 -39 -45 -86 -55 -117 -6 -18 -2 -24 18
-32 14 -5 26 -16 26 -24 0 -35 249 69 401 169 140 91 303 254 394 394 89 135
169 319 191 436 2 11 8 40 13 65 14 64 22 130 16 130 -2 0 -10 -10 -16 -22z"/>
</g>
</svg>
